<svg id="图层_1" data-name="图层 1" xmlns="http://www.w3.org/2000/svg" viewBox="0 0 400 400"><defs><style>.cls-1{fill:#da423b;}.cls-2{fill:#f5eeb0;}</style></defs><title>bitcoin</title><path id="path103" class="cls-1" d="M400,199.93c.05,110.45-89.47,200-199.94,200.07S0,310.54,0,200.09,89.45,0,199.89,0,400,89.47,400,199.93Z" transform="translate(0 0)"/><path class="cls-2" d="M268,191s26.1-11.7,21.75-40.55c-3.79-25.12-36.92-34.58-63.51-36.6V82.3l-26.09,4v27.13h-17.4V86.3l-26.1-4v31.13H104.45v24.18H124c8.7,0,13,2.33,13,8.58V249.91c0,8.58-4.79,11.31-10,11.31H104.55l0,24.57h52.05V318.2l26.1-4V285.79h17.4V314.2l26.09,4V285.79h5.66c53.49,0,71.33-23.4,71.33-55.37S268,191,268,191Zm-85.25-51.86h18.71c13,0,38.71,1.95,38.71,21.06,0,17.23-13.78,23.66-22.87,24.76H182.73Zm28.71,119.72H182.73V209h33.49c7.84,0,36.55,2.34,36.55,21.06S239.28,258.88,211.44,258.88Z" transform="translate(0 0)"/><path class="cls-1" d="M197,199.19a6.66,6.66,0,0,1-2.16,3.26,5.36,5.36,0,0,1-3.43,1.18,4.84,4.84,0,0,1-3.8-1.64,6.27,6.27,0,0,1-1.46-4.32,9.33,9.33,0,0,1,.63-3.4,8.32,8.32,0,0,1,1.75-2.8,6.18,6.18,0,0,1,2-1.41,5.88,5.88,0,0,1,2.35-.47,4.86,4.86,0,0,1,3.6,1.33,5.42,5.42,0,0,1,1.44,3.71l-2.85.24a3.81,3.81,0,0,0-.62-2.19,1.91,1.91,0,0,0-1.62-.77,2.29,2.29,0,0,0-1.18.32,3,3,0,0,0-1,.95,7.38,7.38,0,0,0-1,2.23,9.88,9.88,0,0,0-.38,2.67,3.84,3.84,0,0,0,.6,2.3,2,2,0,0,0,1.66.82,2.34,2.34,0,0,0,1.65-.69,4.69,4.69,0,0,0,1.16-2Z" transform="translate(0 0)"/><path class="cls-1" d="M197.89,203.39l2.4-13.51h4l1.54,9.09,4.28-9.09h4.31L212,203.39h-2.81l2.06-11.47-5.43,11.47h-1.89l-1.75-11.45-2,11.45Z" transform="translate(0 0)"/></svg>